<!DOCTYPE svg PUBLIC "-//W3C//DTD SVG 1.1//EN" "http://www.w3.org/Graphics/SVG/1.1/DTD/svg11.dtd">
<!-- Uploaded to: SVG Repo, www.svgrepo.com, Transformed by: SVG Repo Mixer Tools -->
<svg fill="#000000" width="256px" height="256px" viewBox="-3.6 -3.6 43.20 43.20" version="1.1" preserveAspectRatio="xMidYMid meet" xmlns="http://www.w3.org/2000/svg" xmlns:xlink="http://www.w3.org/1999/xlink">
<g id="SVGRepo_bgCarrier" stroke-width="0" transform="translate(0,0), scale(1)">
<path transform="translate(-3.6, -3.6), scale(1.35)" d="M16,28.555640144007548C18.17964378900318,28.324658804323203,20.12610956424656,27.440862764453403,22.205846609813825,26.748841632176617C24.807160206116947,25.88326875402958,28.06642547985898,26.092247110403214,29.795969509877082,23.965106710259406C31.517627497444217,21.847665236077333,31.549088873792535,18.661468779944762,30.94555879490716,16C30.382676904094794,13.517783070629816,28.257683836843306,11.811978813680492,26.60174094626914,9.879082010792837C25.21482032057831,8.260201034573155,23.921228141651614,6.53650701741679,22.017033411456012,5.578192420518711C20.167647282233585,4.647461075225766,18.057446783735976,4.774686731035332,16,4.543596653001648C13.68694618415178,4.283797084417,11.258041827337818,3.1492245095098568,9.14847500888365,4.132810606058571C7.028066671710068,5.121451563626433,6.079522241879858,7.574956228541339,5.022233193724489,9.661983379295888C4.008853414249517,11.662336184879031,3.4612289935910177,13.781231446655704,3.1365506436143598,15.999999999999998C2.7678534953661136,18.519581728500647,1.8916497425185266,21.213369049332897,2.996140389346545,23.507781846714863C4.11069353337259,25.823097964927186,6.589815056741571,27.219977273516918,8.985279475471796,28.14985234937904C11.206538595961096,29.012104143655026,13.630523292302275,28.806738468906396,16,28.555640144007548" fill="#ff69b4" strokewidth="0"/>
</g>
<g id="SVGRepo_tracerCarrier" stroke-linecap="round" stroke-linejoin="round" stroke="#CCCCCC" stroke-width="2.1599999999999997"/>
<g id="SVGRepo_iconCarrier"> <title>keyboard-solid</title> <path class="clr-i-solid clr-i-solid-path-1" d="M32,8H4a2,2,0,0,0-2,2V26a2,2,0,0,0,2,2H32a2,2,0,0,0,2-2V10A2,2,0,0,0,32,8ZM19,13h2v2H19Zm0,4h2v2H19Zm-4-4h2v2H15Zm0,4h2v2H15Zm-4-4h2v2H11ZM9,24H7V22H9Zm0-5H7V17H9Zm0-4H7V13H9Zm2,2h2v2H11Zm13.88,7H11.13V22H24.88ZM25,19H23V17h2Zm0-4H23V13h2Zm3.94,9H27V22h1.94ZM29,19H27V17h2Zm0-4H27V13h2Z"/> <rect x="0" y="0" width="36" height="36" fill-opacity="0"/> </g>
</svg>