<svg width="256px" height="256px" viewBox="-2.4 -2.4 28.80 28.80" fill="none" xmlns="http://www.w3.org/2000/svg"><g id="SVGRepo_bgCarrier" stroke-width="0" transform="translate(0,0), scale(1)"><path transform="translate(-2.4, -2.4), scale(0.8999999999999999)" d="M16,31.204101604010376C18.88410537569404,31.598338898328688,21.69989446913798,30.25058126771593,24.198545219291432,28.75718537543007C26.75781353514216,27.22755952039046,29.176650837534876,25.295317839237228,30.420141618619535,22.585458018825747C31.664688841023906,19.87329596350553,31.692870888324865,16.749766349076086,31.04514217102166,13.836835125738679C30.42706433543984,11.057248274602834,28.846626854144237,8.63000864733322,26.862755291401115,6.587368958992679C24.95856563711811,4.626771592201572,22.680823175833652,2.8652057001971905,19.980327817831387,2.444248344215749C17.411321952402236,2.043787771896201,15.044682602704759,3.5257487626165918,12.582585239846647,4.361354161353946C10.233400660654775,5.158638357590824,7.64267162200044,5.4854613764280735,5.87896770134369,7.230075590786649C4.053695457048857,9.035591735063957,3.3538522147850807,11.600220473367544,2.7434484385577385,14.09399563223943C2.077548549156174,16.814497482258574,0.9230976794172441,19.80883636754822,2.1884455771484514,22.307525559178465C3.4502364362008247,24.799190647700822,6.777585437587265,25.18438026407572,9.1255748188861,26.696814378560433C11.476762977926022,28.211308954058644,13.22902357826765,30.82532825670828,16,31.204101604010376" fill="#ff69b4" strokewidth="0"></path></g><g id="SVGRepo_tracerCarrier" stroke-linecap="round" stroke-linejoin="round"></g><g id="SVGRepo_iconCarrier"> <path opacity="0.1" d="M17 6C18.8856 6 19.8284 6 20.4142 6.58579C21 7.17157 21 8.11438 21 10L21 12L21 14C21 15.8856 21 16.8284 20.4142 17.4142C19.8284 18 18.8856 18 17 18L12 18L7 18C5.11438 18 4.17157 18 3.58579 17.4142C3 16.8284 3 15.8856 3 14L3 12L3 10C3 8.11438 3 7.17157 3.58579 6.58579C4.17157 6 5.11438 6 7 6L12 6L17 6Z" fill="#323232"></path> <path d="M10 14L14 14" stroke="#323232" stroke-width="1.56" stroke-linecap="round" stroke-linejoin="round"></path> <path d="M17.5 10L17.5 10.01" stroke="#323232" stroke-width="1.56" stroke-linecap="round" stroke-linejoin="round"></path> <path d="M14 9.99L14 10" stroke="#323232" stroke-width="1.56" stroke-linecap="round" stroke-linejoin="round"></path> <path d="M17.5 13.99L17.5 14" stroke="#323232" stroke-width="1.56" stroke-linecap="round" stroke-linejoin="round"></path> <path d="M6.5 14L6.5 14.01" stroke="#323232" stroke-width="1.56" stroke-linecap="round" stroke-linejoin="round"></path> <path d="M10 10L10 10.01" stroke="#323232" stroke-width="1.56" stroke-linecap="round" stroke-linejoin="round"></path> <path d="M6.5 10L6.5 10.01" stroke="#323232" stroke-width="1.56" stroke-linecap="round" stroke-linejoin="round"></path> <path d="M17 6C18.8856 6 19.8284 6 20.4142 6.58579C21 7.17157 21 8.11438 21 10L21 12L21 14C21 15.8856 21 16.8284 20.4142 17.4142C19.8284 18 18.8856 18 17 18L16 18L8 18L7 18C5.11438 18 4.17157 18 3.58579 17.4142C3 16.8284 3 15.8856 3 14L3 12L3 10C3 8.11438 3 7.17157 3.58579 6.58579C4.17157 6 5.11438 6 7 6L8 6L16 6L17 6Z" stroke="#323232" stroke-width="1.56" stroke-linejoin="round"></path> </g></svg>
